<svg xmlns="http://www.w3.org/2000/svg" xmlns:xlink="http://www.w3.org/1999/xlink" width="59" height="59" viewBox="0 0 59 59">
  <defs>
    <filter id="Ellipse_131" x="0" y="0" width="59" height="59" filterUnits="userSpaceOnUse">
      <feOffset dy="3" input="SourceAlpha"/>
      <feGaussianBlur stdDeviation="3" result="blur"/>
      <feFlood flood-opacity="0.161"/>
      <feComposite operator="in" in2="blur"/>
      <feComposite in="SourceGraphic"/>
    </filter>
  </defs>
  <g id="Add_to_favorites_button" data-name="Add to favorites button" transform="translate(-291 -287)">
    <g transform="matrix(1, 0, 0, 1, 291, 287)" filter="url(#Ellipse_131)">
      <circle id="Ellipse_131-2" data-name="Ellipse 131" cx="20.5" cy="20.5" r="20.5" transform="translate(9 6)" fill="#f2f2f2"/>
    </g>
    <g id="heart" transform="translate(311 306)">
      <path id="Path_8609" data-name="Path 8609" d="M13.913,35.525a5.224,5.224,0,0,1,5.2,5.2c0,5.249-9.556,10.448-9.556,10.448S0,45.9,0,40.723a5.2,5.2,0,0,1,5.2-5.2h0a5.147,5.147,0,0,1,4.357,2.344A5.2,5.2,0,0,1,13.913,35.525Z" transform="translate(0 -35.525)" fill="#030357" stroke="#030357" stroke-width="1"/>
    </g>
  </g>
</svg>
